<svg xmlns="http://www.w3.org/2000/svg" viewBox="0 0 513.75 295.1"><defs><style>.cls-1{fill:#fff;stroke:#1f233a;stroke-miterlimit:10;}</style></defs><title>Fichier 1</title><g id="Calque_2" data-name="Calque 2"><g id="Calque_1-2" data-name="Calque 1"><g id="Calque_2-2" data-name="Calque 2"><g id="Capa_1" data-name="Capa 1"><path class="cls-1" d="M430,125.58a84.51,84.51,0,0,1,0,169H115.89a113.54,113.54,0,0,1-3.7-227c1.24,0,2.47,0,3.7,0a117.12,117.12,0,0,1,22.48,2.3,108.83,108.83,0,0,1,12,3.2A147.09,147.09,0,0,1,422.66,126.1a58.3,58.3,0,0,1,7.36-.47Zm43.62,40.74a61.74,61.74,0,0,0-43.62-18c-2.56,0-5.13.17-7.53.33-2.57.32-5,.79-7.22,1.28l-13.15,3.2-.8-13.46A124.4,124.4,0,0,0,165.79,91.91L161,101.37l-9.78-4.18a102.75,102.75,0,0,0-17.15-5.29,96.36,96.36,0,0,0-18.16-1.77,90.85,90.85,0,0,0,0,181.7H430.05a61.78,61.78,0,0,0,43.61-105.5Z"/></g></g></g></g></svg>