<svg xmlns="http://www.w3.org/2000/svg" viewBox="0 0 513 387.31"><defs><style>.cls-1{fill:#fff;stroke:#1f233a;stroke-miterlimit:10;}</style></defs><title>Fichier 1</title><g id="Calque_2" data-name="Calque 2"><g id="Calque_1-2" data-name="Calque 1"><g id="Calque_2-2" data-name="Calque 2"><g id="Capa_1" data-name="Capa 1"><path class="cls-1" d="M512.5,109.6a8.22,8.22,0,0,0-14.56-5.44,65.68,65.68,0,1,1-95.82-89.43A8.21,8.21,0,0,0,395.7.54a106,106,0,0,0-95.84,99.37,94.24,94.24,0,0,0-48.14-13.15c-.83,0-1.65.08-2.48.1a93.55,93.55,0,0,0-53,18,129.06,129.06,0,0,0-66-18.12C58.7,86.8.5,145,.5,216.54s58.2,129.7,129.72,129.7A126.9,126.9,0,0,0,159,342.9a94,94,0,0,0,167.51-17A93.93,93.93,0,0,0,453.12,202.24,105.83,105.83,0,0,0,512.5,109.6ZM444.93,188a94.32,94.32,0,0,0-62.69-39.4,97.45,97.45,0,0,0-14.57-1.24c-.86,0-1.71.07-2.57.09a93.11,93.11,0,0,0-24.14,3.8,93.6,93.6,0,0,0-24.71-38.9c-.12-1.9-.29-3.79-.29-5.74a89.75,89.75,0,0,1,59.87-85,81.24,81.24,0,0,0-10.9,40.93,82.18,82.18,0,0,0,128,68.21,89.17,89.17,0,0,1-48,57.25Z"/></g></g></g></g></svg>