<svg xmlns="http://www.w3.org/2000/svg" viewBox="0 0 477.49 513"><defs><style>.cls-1{fill:#fff;stroke:#1f233a;stroke-miterlimit:10;}</style></defs><title>Fichier 2</title><g id="Calque_2" data-name="Calque 2"><g id="Capa_1" data-name="Capa 1"><path class="cls-1" d="M473.18,371a17.13,17.13,0,0,0-19-5.29A180.43,180.43,0,0,1,393,376C289.51,376,205.3,291.73,205.3,188.23A187.16,187.16,0,0,1,287.56,33.06a17.06,17.06,0,0,0-7.13-31A165.79,165.79,0,0,0,256.5.5C115.32.5.5,115.32.5,256.5s114.82,256,256,256c89.6,0,171.11-45.53,218-121.79A17.2,17.2,0,0,0,473.18,371Z"/></g></g></svg>