<svg xmlns="http://www.w3.org/2000/svg" viewBox="0 0 512.95 378.72"><defs><style>.cls-1{fill:#fff;stroke:#1f233a;stroke-miterlimit:10;}</style></defs><title>Fichier 2</title><g id="Calque_2" data-name="Calque 2"><g id="Calque_1-2" data-name="Calque 1"><g id="Calque_2-2" data-name="Calque 2"><g id="Capa_1" data-name="Capa 1"><path class="cls-1" d="M429.23,125.64a84.51,84.51,0,0,1,0,169H115.1a113.53,113.53,0,0,1,0-227.06,118.6,118.6,0,0,1,22.48,2.25,115.26,115.26,0,0,1,12,3.2A147.09,147.09,0,0,1,421.87,126.1,62.41,62.41,0,0,1,429.23,125.64Zm43.62,40.73a61.78,61.78,0,0,0-43.62-18c-2.56,0-5.13.16-7.53.32-2.57.33-5,.8-7.22,1.29l-13.15,3.2-.8-13.47A124.39,124.39,0,0,0,165,92l-4.81,9.45-9.78-4.17A102.75,102.75,0,0,0,133.24,92a95.88,95.88,0,0,0-18.13-1.77,90.84,90.84,0,0,0,0,181.68H429.24a61.78,61.78,0,0,0,43.61-105.5Z"/><path class="cls-1" d="M429.24,209.21a84.51,84.51,0,0,1,0,169H115.11A113.54,113.54,0,0,1,113,151.14h2.14a117.7,117.7,0,0,1,22.47,2.27,112.82,112.82,0,0,1,12,3.2,147.09,147.09,0,0,1,272.3,53.07,60.36,60.36,0,0,1,7.36-.47ZM472.86,250a61.78,61.78,0,0,0-43.62-18c-2.56,0-5.13.17-7.53.33-2.57.32-5,.8-7.22,1.28l-13.15,3.2-.76-13.43A124.4,124.4,0,0,0,165,175.5L160.18,185l-9.78-4.18a103.66,103.66,0,0,0-17.15-5.28,96.71,96.71,0,0,0-18.13-1.77,90.89,90.89,0,0,0-1.91,181.77h316A61.78,61.78,0,0,0,472.82,250Z"/></g></g></g></g></svg>