<svg xmlns="http://www.w3.org/2000/svg" viewBox="0 0 513 374.94"><defs><style>.cls-1{fill:#fff;stroke:#1f233a;stroke-miterlimit:10;}</style></defs><title>Fichier 1</title><g id="Calque_2" data-name="Calque 2"><g id="Capa_1" data-name="Capa 1"><g id="Cloud_Rain" data-name="Cloud + Rain"><path class="cls-1" d="M199.16,288.88l-66.07,65.84,19.57,19.51,66.06-65.84Zm73.36,0-66.06,65.84L226,374.23l66.06-65.84Zm10.27,65.84,19.57,19.51,66.06-65.84-19.57-19.51Zm144-212C415.72,60.53,362.11.5,277.26.5c-71,0-110.37,42-134.62,107.3a117.27,117.27,0,0,0-27.15-3.18C52,104.62.5,158.92.5,221.21.5,280.8,50.18,328,111.2,331.56h25.16V304H111.2c-44.06-2.61-83-39.47-83-82.76,0-45.27,41.21-85.74,87.31-85.74a84.84,84.84,0,0,1,31.5,6.07l16.69,6.67,4.48-17.11c15.64-59.58,46.44-103,109.1-103,73.59,0,116.18,58.37,119.47,130.61l.72,15.66,19.1-1.36c35.59,0,68.3,27.07,68.3,62s-33.6,69-69.19,69H379.41v27.59h36.23c52.91,0,96.86-44.61,96.86-96.56C512.5,186.92,475.14,147.79,426.82,142.7Z"/></g></g></g></svg>