<svg xmlns="http://www.w3.org/2000/svg" viewBox="0 0 282.19 300.65"><defs><style>.cls-1{fill:#fff;stroke:#1f233a;stroke-miterlimit:10;}</style></defs><title>Fichier 1</title><g id="Calque_2" data-name="Calque 2"><g id="Layer_1" data-name="Layer 1"><path class="cls-1" d="M277.09,226.25l-26.46-17,12.14-3.05a9.37,9.37,0,1,0,.61-18.73h-.61l-33.14,8.3-45-28.89a45.32,45.32,0,0,0-.07-33.88l44.82-28.8,33.39,8.33a9.36,9.36,0,1,0,0-18.72l-12.36-3.09,26.46-17a9.34,9.34,0,0,0,3.41-12.67,9.11,9.11,0,0,0-12.39-3.49l-.14.08L239.14,76l4.91-19.59a9.36,9.36,0,0,0-18.71-.61c0,.21,0,.41,0,.61L217,89.89l-.29.51-42.08,27a46.78,46.78,0,0,0-24.14-13.26V60.78l25.31-25.32A9.73,9.73,0,0,0,162,21.7L150.44,33.25V9.56a9.37,9.37,0,0,0-18.73,0v23.5L120.35,21.68a9.67,9.67,0,0,0-13.66,13.68l25,25v43.75a46.64,46.64,0,0,0-24.14,13.26l-42.07-27-.2-.48L56.86,56.38a9.37,9.37,0,0,0-18.73,0L43,76,14.48,57.63A9.11,9.11,0,0,0,2,60.89S2,61,2,61A9.37,9.37,0,0,0,5.28,73.74l26.48,17L19.41,93.83a9.37,9.37,0,0,0,0,18.73l33.35-8.36L97.59,133a45.22,45.22,0,0,0-.06,33.88l-45,28.89-33.14-8.29a9.37,9.37,0,0,0,0,18.73l12.15,3-26.45,17a9.35,9.35,0,0,0-3.35,12.69,9.07,9.07,0,0,0,12.33,3.59l.21-.12,28.8-18.5-5,19.82a9.37,9.37,0,0,0,18.73,0l8.47-33.73.28-.53,41.93-26.92a46.47,46.47,0,0,0,24.24,13.4v43.73L106.4,264.78a9.6,9.6,0,0,0,0,13.58h0a9.72,9.72,0,0,0,13.66,0l11.67-11.6v23.7a9.37,9.37,0,1,0,18.73.62c0-.21,0-.41,0-.62V267.2l11.24,11.2a9.81,9.81,0,0,0,13.78,0,9.61,9.61,0,0,0,.05-13.61l-.05-.06-25-24.87v-44a46.69,46.69,0,0,0,24.25-13.41l41.92,26.92.27.53,8.43,33.71a9.36,9.36,0,0,0,18.71.62c0-.21,0-.41,0-.62l-4.94-19.8,28.8,18.51a9.1,9.1,0,0,0,12.46-3.28s.05-.08.07-.13A9.34,9.34,0,0,0,277.09,226.25Zm-136-48.14A28.09,28.09,0,1,1,169.17,150h0A28.09,28.09,0,0,1,141.09,178.11Z"/></g></g></svg>