<svg xmlns="http://www.w3.org/2000/svg" viewBox="0 0 513 472.92"><defs><style>.cls-1{fill:#fff;stroke:#1f233a;stroke-miterlimit:10;}</style></defs><title>Fichier 1</title><g id="Calque_2" data-name="Calque 2"><g id="Capa_1" data-name="Capa 1"><g id="Cloud_Thunder" data-name="Cloud + Thunder"><path class="cls-1" d="M426.82,142C415.75,60.25,362.11.5,277.26.5c-71,0-110.37,41.87-134.62,106.83a117.47,117.47,0,0,0-27.15-3.19C52,104.14.5,160.27.5,222.27.5,281.57,50.18,329.4,111.2,333h27.68V305.29H111.2c-44.06-2.57-83-39.93-83-83,0-45.06,41.21-87.43,87.31-87.43a85.61,85.61,0,0,1,31.5,6l16.69,6.64,4.48-17C183.8,71.18,214.6,28,277.26,28c73.59,0,116.18,58.09,119.47,130l.72,15.61,19.1-1.36c35.59,0,68.3,29.14,68.3,63.9s-33.6,69.19-69.19,69.19H374.15V333h41.49c52.91,0,96.86-45.17,96.86-96.87C512.5,188.25,475.14,147.1,426.82,142ZM388,263.78h-83l55.35-83H208.07L154.29,333.44h66.79L180.89,471.18ZM194.23,305.29l41.51-96.86h69.19l-41.51,83h55.35l-83,83,27.68-69.19Z"/></g></g></g></svg>