<svg xmlns="http://www.w3.org/2000/svg" viewBox="0 0 512.47 513.03"><defs><style>.cls-1{fill:#fff;stroke:#1f233a;stroke-miterlimit:10;}</style></defs><title>Fichier 1</title><g id="Calque_2" data-name="Calque 2"><g id="Calque_1-2" data-name="Calque 1"><g id="Calque_2-2" data-name="Calque 2"><g id="Capa_1" data-name="Capa 1"><path class="cls-1" d="M496,240.08H426.86a15.77,15.77,0,0,0-16,15.54v.46a16,16,0,0,0,15.77,16.23H496a16,16,0,0,0,16-16v-.23a15.77,15.77,0,0,0-15.53-16Z"/><path class="cls-1" d="M388.23,147.46,437,98.08c6.22-6.32,6.45-15.74,0-22.68-6-6.44-16-6.69-22.65,0l-48.79,49.38c-6.22,6.32-6.68,16,0,22.68A16.29,16.29,0,0,0,388.23,147.46Z"/><path class="cls-1" d="M388.23,365.54c-6.68-6.69-16.84-6.69-22.65,0-6.68,5.83-6.26,16.42,0,22.68L414.37,437c4.94,6.13,17.72,6.13,22.65,0,6.68-5.77,6.68-16,0-22.62Z"/><path class="cls-1" d="M256.1,102.17a16,16,0,0,0,16.26-15.74V16.48a16,16,0,0,0-16-16h-.24A15.77,15.77,0,0,0,240.1,16V86.2a15.77,15.77,0,0,0,15.57,16Z"/><path class="cls-1" d="M256.1,410.83a15.77,15.77,0,0,0-16,15.54v70.16a16.12,16.12,0,0,0,16,16A16.49,16.49,0,0,0,272.36,496V426.82a16,16,0,0,0-16-16Z"/><path class="cls-1" d="M343.8,168.34c-24.25-24.23-53.44-36.56-87.7-36.56s-63.61,12.21-88,36.56c-24.11,24.1-36.31,53.47-36.31,87.73s12.06,63.75,36.31,88,53.72,36.31,88,36.31,63.59-12.21,87.7-36.31q36.6-36.52,36.59-88C380.39,221.81,368,192.62,343.8,168.34ZM321.43,321.43q-27,27-65.33,27-37.91,0-65.06-27c-18.06-18-27-39.84-27-65.36q0-37.92,27-65.06c18-18.06,39.79-27,65.06-27q38.32,0,65.33,27c18,18,27,39.78,27,65.06Q348.46,294.35,321.43,321.43Z"/><path class="cls-1" d="M124.82,147.46a15.48,15.48,0,0,0,11.34,4.65c3.77,0,7.54-1.49,11.32-4.65,5.81-6.69,5.81-16.85,0-22.68L98.11,75.4c-5.81-5.76-16.85-5.76-22.65,0a15.67,15.67,0,0,0-.52,22.16l.52.52Z"/><path class="cls-1" d="M124.25,365.54,75.46,414.36A16,16,0,0,0,74.84,437l.62.62a16.36,16.36,0,0,0,22.65,0l49.37-49.38c6.26-6.26,5.81-16.85,0-22.68a16,16,0,0,0-22.62-.61C124.65,365.13,124.45,365.33,124.25,365.54Z"/><path class="cls-1" d="M102.17,256.07a15.77,15.77,0,0,0-15.53-16H16.5a15.77,15.77,0,0,0-16,15.54v.46A16,16,0,0,0,16.27,272.3H86.2a16,16,0,0,0,16-16Z"/></g></g></g></g></svg>