<svg id="Capa_1" data-name="Capa 1" xmlns="http://www.w3.org/2000/svg" viewBox="0 0 512 377.84"><defs><style>.cls-1{fill:#7d949f;}</style></defs><title>prevalingRain</title><path class="cls-1" d="M427.65,234.11a84.51,84.51,0,0,1,0,169H113.52a113.53,113.53,0,1,1,0-227.06A117.31,117.31,0,0,1,136,178.3a110.66,110.66,0,0,1,12,3.2,147.09,147.09,0,0,1,272.29,53.07,58.51,58.51,0,0,1,7.36-.46Zm43.62,40.73a61.73,61.73,0,0,0-43.62-18c-2.56,0-5.13.16-7.53.32-2.57.33-5,.8-7.22,1.29l-13.15,3.2-.8-13.47A124.39,124.39,0,0,0,163.4,200.44l-4.81,9.45-9.78-4.17a101.6,101.6,0,0,0-17.15-5.29,94.55,94.55,0,0,0-18.13-1.77,90.84,90.84,0,1,0,0,181.68H427.66a61.78,61.78,0,0,0,43.61-105.5Z" transform="translate(0 -108.86)"/><path class="cls-1" d="M427.66,317.68a84.51,84.51,0,0,1,0,169H113.53a113.54,113.54,0,1,1,0-227.07A116.52,116.52,0,0,1,136,261.88a108.41,108.41,0,0,1,12,3.2A147.09,147.09,0,0,1,420.3,318.15a56.67,56.67,0,0,1,7.36-.47Zm43.62,40.74a61.7,61.7,0,0,0-43.62-18c-2.56,0-5.13.17-7.53.33-2.57.32-5,.8-7.22,1.28l-13.15,3.2L399,331.8A124.4,124.4,0,0,0,163.41,284l-4.81,9.46-9.78-4.18A101.6,101.6,0,0,0,131.67,284a95.36,95.36,0,0,0-18.13-1.77,90.85,90.85,0,1,0,0,181.69H427.67a61.78,61.78,0,0,0,43.61-105.5Z" transform="translate(0 -108.86)"/><rect class="cls-1" x="71.21" y="172.33" width="303.08" height="179.91"/><rect class="cls-1" x="71.21" y="230.63" width="380.92" height="126.7"/><rect class="cls-1" x="205.53" y="230.63" width="284.88" height="124.06" rx="18.41" ry="18.41"/><rect class="cls-1" x="22.62" y="181.75" width="306.99" height="163.73" rx="26.39" ry="26.39"/><rect class="cls-1" x="152.09" y="249.7" width="184.46" height="162.59" rx="18.41" ry="18.41" transform="translate(575.31 -22.18) rotate(90)"/><rect class="cls-1" x="181.24" y="220.59" width="184.46" height="162.59" rx="18.41" ry="18.41" transform="translate(575.36 -80.44) rotate(90)"/><rect class="cls-1" x="222.47" y="253.84" width="183.54" height="172.86" rx="18.41" ry="18.41" transform="translate(580.69 -147.45) rotate(77.84)"/></svg>