<svg id="Layer_1" data-name="Layer 1" xmlns="http://www.w3.org/2000/svg" viewBox="0 0 281.15 299.64"><defs><style>.cls-1{fill:#7d949f;}</style></defs><title>snow</title><path class="cls-1" d="M285.81,226.05l-26.46-17L271.49,206a9.37,9.37,0,1,0,0-18.73l-33.14,8.3-45-28.89a45.32,45.32,0,0,0-.07-33.88L238.1,104l33.39,8.33a9.36,9.36,0,1,0,0-18.72l-12.36-3.09,26.46-17A9.35,9.35,0,0,0,289,60.85a9.1,9.1,0,0,0-12.53-3.41L247.86,75.77l4.91-19.59a9.36,9.36,0,1,0-18.71,0l-8.38,33.51-.29.51-42.08,27a46.68,46.68,0,0,0-24.14-13.26V60.58l25.31-25.32A9.73,9.73,0,0,0,170.72,21.5L159.16,33.05V9.36a9.37,9.37,0,0,0-18.73,0v23.5L129.07,21.48a9.67,9.67,0,0,0-13.66,13.68l25,25v43.75a46.6,46.6,0,0,0-24.14,13.26l-42.07-27L74,89.69,65.58,56.18a9.37,9.37,0,0,0-18.73,0l4.89,19.57L23.2,57.43a9.1,9.1,0,0,0-12.53,3.4A9.38,9.38,0,0,0,14,73.54l26.48,17L28.13,93.63a9.37,9.37,0,0,0,0,18.73L61.48,104l44.83,28.77a45.26,45.26,0,0,0-.06,33.88l-45,28.89-33.14-8.29a9.37,9.37,0,0,0,0,18.73l12.15,3-26.45,17a9.34,9.34,0,0,0-3.35,12.69A9.08,9.08,0,0,0,23,242.14l28.8-18.5-5,19.82a9.37,9.37,0,0,0,18.73,0L74,209.73l.28-.53,41.93-26.92a46.5,46.5,0,0,0,24.24,13.4v43.73l-25.33,25.17a9.6,9.6,0,0,0,0,13.59,9.72,9.72,0,0,0,13.66,0l11.67-11.6v23.7a9.37,9.37,0,1,0,18.73,0V267l11.24,11.2a9.81,9.81,0,0,0,13.78,0,9.63,9.63,0,0,0,0-13.67l-25-24.87V195.7a46.73,46.73,0,0,0,24.25-13.41l41.92,26.92.27.53,8.43,33.71a9.36,9.36,0,1,0,18.71,0l-4.94-19.8,28.8,18.51a9.11,9.11,0,0,0,12.53-3.41A9.34,9.34,0,0,0,285.81,226.05Zm-136-48.14a28.09,28.09,0,1,1,28.08-28.09A28.09,28.09,0,0,1,149.81,177.91Z" transform="translate(-9.24)"/></svg>