<svg xmlns="http://www.w3.org/2000/svg" viewBox="0 0 867.44 476"><defs><style>.cls-1{fill:#acc2e5;}.cls-2{fill:#f0f0f2;}</style></defs><title>Fichier 16</title><g id="Calque_2" data-name="Calque 2"><g id="Calque_1-2" data-name="Calque 1"><rect class="cls-1" x="1.89" width="865.42" height="476" rx="12" ry="12"/><path class="cls-2" d="M337.41,295.28s17.74-47.23,64.66-29.71c0,0,30.08-32.5,58.16-14.36,0,0,48.73-9.8,58.77,23.54,0,0,28.63-1.7,43.91,26.77s-79.21,70.14-79.21,70.14l-57.17,30.85Z"/><path class="cls-2" d="M460.72,418.56s8.59-79.5,68.71-79.5c0,0-12-53,42.94-65.37,0,0,13.74-51.23,65.27-30,0,0,30.92,3.53,44.66,38.86,0,0,29.2,0,42.94,23s-13.74,67.13-13.74,67.13L534.58,436.23Z"/><path class="cls-2" d="M867.44,283.35c-10.18-22.87-45.07-15.45-45.07-15.45-15.91-54.54-66.28-23.18-66.28-23.18-23.87-13.63-43.75,0-43.75,0L699.08,272l95.45,111.82,72.91.14Z"/><path class="cls-2" d="M709.71,243.46c-24.22-3.54-37,30.68-37,30.68C619.5,258.45,618,319,618,319a45,45,0,0,0-23.62,37.87l15.15,26.21,143-22.25,39.49-63Z"/><path class="cls-2" d="M867.44,365.23c-5.28-4-13.25-6.35-23.18,2,0,0,4.84-64.69-56-49.76,0,0-2.77-47.64-60.83-41.24,0,0-28.34,5.69-29.72,46.93,0,0-20.74-12.8-41.48,3.55,0,0-36.63-14.22-61.52,7.82,0,0-15,7.78-14.77,23.44,0,0-40.52-13.49-44.67,34.86,0,0-22.12-12.8-33.87,9.95,0,0-20.05-44.08-56-7.82,0,0-51.15-40.52-82.26,15.64,0,0-43.54,10-24.19,44.79,14.61,26.29,359.94,18.17,528.46,12.6Z"/><path class="cls-2" d="M443.44,395.8s-10.54-79.5-84.33-79.5c0,0,14.76-53-52.7-65.37,0,0-16.87-51.23-80.12-30,0,0-47,3.15-63.89,38.49,0,0-26.77.38-43.63,23.34s16.86,67.14,16.86,67.14l217.16,63.6Z"/><path class="cls-2" d="M180.74,236.59s-21.16-13.63-46.56,0c0,0-53.61-31.36-70.54,23.18,0,0-40.92-8.18-49.39,19.09,0,0,4.44-29.09-13.48-47.22V375.85l92.5-.17L194.85,263.87Z"/><path class="cls-2" d="M555.83,411.81c-33.1-56.16-87.54-15.64-87.54-15.64C430,359.91,408.7,404,408.7,404c-12.5-22.75-36.05-9.95-36.05-9.95-4.41-48.35-47.54-34.86-47.54-34.86.28-15.66-15.72-23.44-15.72-23.44-26.48-22-65.47-7.82-65.47-7.82-22.07-16.35-44.14-3.55-44.14-3.55-1.47-41.24-31.63-46.93-31.63-46.93-61.8-6.4-64.74,41.24-64.74,41.24-64.74-14.93-59.59,49.76-59.59,49.76-19.86-15.64-32.37,6.4-32.37,6.4A16.48,16.48,0,0,0,0,368.47V468.59c170.77,5.53,565.46,15.28,581.58-12C602.18,421.77,555.83,411.81,555.83,411.81Z"/></g></g></svg>