<svg xmlns="http://www.w3.org/2000/svg" xmlns:xlink="http://www.w3.org/1999/xlink" viewBox="0 0 616 954"><defs><style>.cls-1{fill:url(#Dégradé_sans_nom_13);}.cls-2{fill:url(#Dégradé_sans_nom_7);}.cls-3{fill:url(#Dégradé_sans_nom_27);}.cls-4,.cls-5,.cls-6,.cls-7,.cls-8,.cls-9{fill:#fff;}.cls-4{opacity:0.78;}.cls-6{opacity:0.72;}.cls-7{opacity:0.87;}.cls-8{opacity:0.5;}.cls-9{opacity:0.56;}.cls-10{opacity:0.7;}.cls-11{fill:#f0f1ea;}</style><linearGradient id="Dégradé_sans_nom_13" x1="308" x2="308" y2="954" gradientUnits="userSpaceOnUse"><stop offset="0" stop-color="#803496"/><stop offset="0.12" stop-color="#94409a"/><stop offset="0.26" stop-color="#a3499e"/><stop offset="0.37" stop-color="#a84c9f"/><stop offset="0.7" stop-color="#de72ae"/><stop offset="1" stop-color="#eaaac1"/></linearGradient><linearGradient id="Dégradé_sans_nom_7" x1="308" y1="680" x2="308" y2="954" gradientUnits="userSpaceOnUse"><stop offset="0" stop-color="#c1deee"/><stop offset="0.22" stop-color="#c2d8ea"/><stop offset="0.52" stop-color="#c5c8e0"/><stop offset="0.84" stop-color="#c9aed0"/><stop offset="1" stop-color="#cc9ec6"/></linearGradient><linearGradient id="Dégradé_sans_nom_27" x1="308" y1="826.15" x2="308" y2="954" gradientUnits="userSpaceOnUse"><stop offset="0" stop-color="#e0deee"/><stop offset="1" stop-color="#f1d29c"/></linearGradient></defs><title>Fichier 1</title><g id="Calque_2" data-name="Calque 2"><g id="Calque_1-2" data-name="Calque 1"><rect class="cls-1" width="616" height="954" rx="12" ry="12"/><rect class="cls-2" y="680" width="616" height="274"/><path class="cls-3" d="M0,826.15S182.05,902,385.47,902H616l-.17,52H0Z"/><circle class="cls-4" cx="107" cy="110" r="3"/><circle class="cls-5" cx="306" cy="183" r="3"/><circle class="cls-6" cx="372" cy="319" r="3"/><circle class="cls-7" cx="558" cy="218" r="3"/><circle class="cls-8" cx="338" cy="55" r="3"/><circle class="cls-8" cx="51" cy="269" r="3"/><circle class="cls-9" cx="561" cy="52" r="3"/><g class="cls-10"><path class="cls-11" d="M505.77,676A202.27,202.27,0,0,0,510,634.69c0-111.29-90.22-201.51-201.51-201.51S107,523.4,107,634.69A202.27,202.27,0,0,0,111.26,676Z"/></g></g></g></svg>