<svg xmlns="http://www.w3.org/2000/svg" viewBox="0 0 70 90"><defs><style>.cls-1{fill:#fff;}</style></defs><title>Fichier 1</title><g id="Calque_2" data-name="Calque 2"><g id="Calque_1-2" data-name="Calque 1"><path class="cls-1" d="M35,0S0,22.3,0,55a35,35,0,0,0,70,0C70,22.3,35,0,35,0Zm0,82.5A27.48,27.48,0,0,1,7.5,55c0-21.9,19-39.1,27.5-45.8C43.5,15.8,62.5,33,62.5,55A27.48,27.48,0,0,1,35,82.5Z"/><path class="cls-1" d="M17.5,55h-5A22.53,22.53,0,0,0,35,77.5v-5A17.58,17.58,0,0,1,17.5,55Z"/></g></g></svg>