<svg xmlns="http://www.w3.org/2000/svg" viewBox="0 0 252.54 63.8"><defs><style>.cls-1{font-size:28px;font-family:Avenir-Roman, Avenir;}.cls-1,.cls-2{fill:#fff;}</style></defs><title>Fichier 3</title><g id="Calque_2" data-name="Calque 2"><g id="Calque_1-2" data-name="Calque 1"><text class="cls-1" transform="translate(0 31)">soundMETEO</text><path class="cls-2" d="M196,21.68a17.92,17.92,0,0,0-12.17-17,.92.92,0,0,0-1.17.57.93.93,0,0,0,.58,1.17,16.08,16.08,0,0,1,0,30.45.92.92,0,0,0,.29,1.8,1,1,0,0,0,.3-.05A17.93,17.93,0,0,0,196,21.68Z"/><path class="cls-2" d="M189,.07a.93.93,0,0,0-1.21.49.93.93,0,0,0,.49,1.21,21.62,21.62,0,0,1-.63,40.06.92.92,0,0,0-.52,1.19.9.9,0,0,0,.85.59,1,1,0,0,0,.34-.06A23.47,23.47,0,0,0,189,.07Z"/><path class="cls-2" d="M178.71,9.75a.92.92,0,0,0-1.14.63l0,.15,0,.36a1,1,0,0,0,.63.63,10.57,10.57,0,0,1,0,20.31.9.9,0,0,0-.47.33c.1.45.19.89.27,1.34a.92.92,0,0,0,.46.14,1.09,1.09,0,0,0,.25,0,12.41,12.41,0,0,0,0-23.85Z"/></g></g></svg>