<svg xmlns="http://www.w3.org/2000/svg" xmlns:xlink="http://www.w3.org/1999/xlink" viewBox="0 0 867 472.82"><defs><style>.cls-1{fill:url(#Dégradé_sans_nom_61);}.cls-2{fill:#fff;}.cls-3{opacity:0.58;}.cls-4{opacity:0.8;}.cls-5{opacity:0.6;}.cls-6{opacity:0.5;}.cls-7{fill:#d9ebf1;}.cls-8{fill:#c5dae7;}</style><linearGradient id="Dégradé_sans_nom_61" x1="433.5" y1="2.21" x2="433.5" y2="472.82" gradientUnits="userSpaceOnUse"><stop offset="0" stop-color="#24205c"/><stop offset="0.13" stop-color="#262562"/><stop offset="0.3" stop-color="#2b3473"/><stop offset="0.44" stop-color="#314486"/><stop offset="0.47" stop-color="#32478a"/><stop offset="0.7" stop-color="#3659a0"/><stop offset="0.84" stop-color="#375fa8"/><stop offset="0.91" stop-color="#3e6aac"/><stop offset="1" stop-color="#4b7fb3"/></linearGradient></defs><title>Fichier 24</title><g id="Calque_2" data-name="Calque 2"><g id="Calque_1-2" data-name="Calque 1"><rect class="cls-1" y="2.21" width="867" height="470.61" rx="12" ry="12"/><ellipse class="cls-2" cx="790.5" cy="410.85" rx="5.41" ry="5.49"/><ellipse class="cls-2" cx="328.41" cy="416.34" rx="5.41" ry="5.49"/><ellipse class="cls-2" cx="580.32" cy="312.81" rx="5.41" ry="5.49"/><ellipse class="cls-2" cx="97.36" cy="421.83" rx="5.41" ry="5.49"/><g class="cls-3"><ellipse class="cls-2" cx="795.91" cy="274.38" rx="10.82" ry="10.98"/></g><g class="cls-4"><ellipse class="cls-2" cx="530.09" cy="420.27" rx="9.27" ry="9.41"/></g><ellipse class="cls-2" cx="91.18" cy="301.83" rx="6.18" ry="6.27"/><ellipse class="cls-2" cx="399.5" cy="76.72" rx="10.82" ry="10.98"/><g class="cls-5"><ellipse class="cls-2" cx="462.09" cy="223.39" rx="10.82" ry="10.98"/></g><g class="cls-5"><ellipse class="cls-2" cx="306.77" cy="301.83" rx="10.82" ry="10.98"/></g><g class="cls-5"><ellipse class="cls-2" cx="202.45" cy="382.62" rx="10.82" ry="10.98"/></g><g class="cls-5"><ellipse class="cls-2" cx="260.41" cy="43.78" rx="10.82" ry="10.98"/></g><ellipse class="cls-2" cx="654.5" cy="257.12" rx="6.18" ry="6.27"/><ellipse class="cls-2" cx="673.82" cy="426.54" rx="6.18" ry="6.27"/><ellipse class="cls-2" cx="409.55" cy="330.07" rx="6.18" ry="6.27"/><g class="cls-6"><ellipse class="cls-2" cx="354.68" cy="210.06" rx="6.18" ry="6.27"/></g><path class="cls-7" d="M541.49,1.3a160.3,160.3,0,0,0-3.15,32.42C538.7,121,608.71,191.47,694.7,191.1s155.41-71.42,155-158.71A160.59,160.59,0,0,0,846.34,0Z"/><ellipse class="cls-8" cx="725.73" cy="124.31" rx="44.82" ry="45.49"/><path class="cls-8" d="M764.54.35a30.23,30.23,0,0,0-1.42,9.28,29.37,29.37,0,1,0,58.73-.25,30.51,30.51,0,0,0-1.5-9.27Z"/><ellipse class="cls-8" cx="648.16" cy="51.7" rx="23.95" ry="24.31"/><ellipse class="cls-8" cx="624.59" cy="144.35" rx="13.91" ry="14.12"/></g></g></svg>