<svg xmlns="http://www.w3.org/2000/svg" xmlns:xlink="http://www.w3.org/1999/xlink" viewBox="0 0 874 477.99"><defs><style>.cls-1{fill:url(#Dégradé_sans_nom_61);}.cls-2,.cls-3{fill:#283489;}.cls-3{opacity:0.7;}.cls-4{fill:#1a2666;}.cls-5{fill:#f7fafb;}.cls-6{opacity:0.5;}.cls-7{opacity:0.63;}.cls-8{opacity:0.32;}</style><linearGradient id="Dégradé_sans_nom_61" x1="434.98" x2="434.98" y2="474.65" gradientUnits="userSpaceOnUse"><stop offset="0" stop-color="#24205c"/><stop offset="0.13" stop-color="#262562"/><stop offset="0.3" stop-color="#2b3473"/><stop offset="0.44" stop-color="#314486"/><stop offset="0.47" stop-color="#32478a"/><stop offset="0.7" stop-color="#3659a0"/><stop offset="0.84" stop-color="#375fa8"/><stop offset="0.91" stop-color="#3e6aac"/><stop offset="1" stop-color="#4b7fb3"/></linearGradient></defs><title>Fichier 18</title><g id="Calque_2" data-name="Calque 2"><g id="Calque_1-2" data-name="Calque 1"><rect class="cls-1" width="869.96" height="474.65" rx="12" ry="12"/><path class="cls-2" d="M341.08,300.27S359,253,406.35,270.56c0,0,30.35-32.49,58.7-14.36,0,0,49.18-9.8,59.31,23.55a49.74,49.74,0,0,1,44.31,26.76c15.41,28.47-79.94,70.14-79.94,70.14L431,407.5Z"/><path class="cls-2" d="M465.54,424.55s8.67-79.5,69.34-79.5c0,0-12.14-53,43.34-65.37,0,0,13.87-51.23,65.87-30,0,0,31.21,3.53,45.07,38.86,0,0,29.47,0,43.34,23s-13.87,67.14-13.87,67.14l-178.55,63.6Z"/><path class="cls-2" d="M871,294.35c-10.27-22.88-45.49-15.46-45.49-15.46-16.05-54.54-66.9-23.18-66.9-23.18-24.08-13.63-44.15,0-44.15,0L701.05,283,797.39,394.8,871,395Z"/><path class="cls-3" d="M716.83,257.45c-24.44-3.54-37.33,30.68-37.33,30.68C625.79,272.44,624.23,333,624.23,333a44.91,44.91,0,0,0-23.84,37.87l15.29,26.21,144.37-22.25,39.86-63Z"/><path class="cls-2" d="M448.1,409.79s-10.64-79.5-85.11-79.5c0,0,14.89-53-53.19-65.37,0,0-17-51.23-80.86-30,0,0-47.46,3.15-64.48,38.49,0,0-27,.38-44,23.34s17,67.14,17,67.14l219.16,63.6Z"/><path class="cls-2" d="M183,250.59s-21.36-13.64-47,0c0,0-54.11-31.37-71.2,23.18,0,0-41.29-8.18-49.83,19.09,0,0,4.48-29.1-13.61-47.22V389.85l93.35-.18L197.21,277.86Z"/><path class="cls-4" d="M615.39,407.73c-37.16-62.55-98.27-17.42-98.27-17.42-42.95-40.38-66.9,8.71-66.9,8.71-14-25.34-40.47-11.09-40.47-11.09-4.95-53.83-53.37-38.81-53.37-38.81.31-17.44-17.66-26.11-17.66-26.11-29.73-24.54-73.5-8.71-73.5-8.71-24.77-18.21-49.55-4-49.55-4-1.65-45.92-35.51-52.25-35.51-52.25C110.78,251,107.48,304,107.48,304c-72.68-16.63-66.9,55.42-66.9,55.42C18.28,342,4.24,366.56,4.24,366.56a16.73,16.73,0,0,0-1.91-2.16V430c.31,13.76.5,27.53.5,41.29,197.31,6.2,623.72,16.06,641.47-13.71C667.43,418.81,615.39,407.73,615.39,407.73Z"/><path class="cls-4" d="M252.72,407.73c37.66-62.55,99.6-17.42,99.6-17.42,43.52-40.38,67.79,8.71,67.79,8.71,14.23-25.34,41-11.09,41-11.09,5-53.83,54.09-38.81,54.09-38.81C514.89,331.68,533.1,323,533.1,323c30.13-24.54,74.48-8.71,74.48-8.71,25.11-18.21,50.22-4,50.22-4,1.67-45.92,36-52.25,36-52.25C764.09,251,767.44,304,767.44,304c73.65-16.63,67.79,55.42,67.79,55.42,22.6-17.42,36.83,7.13,36.83,7.13A16.91,16.91,0,0,1,874,364.4V430q-.48,20.64-.51,41.29c-200,6.2-632.08,16.06-650.06-13.71C200,418.81,252.72,407.73,252.72,407.73Z"/><ellipse class="cls-5" cx="402.8" cy="123.8" rx="2.71" ry="2.77"/><g class="cls-6"><ellipse class="cls-5" cx="765.68" cy="47.86" rx="5.04" ry="5.14"/></g><ellipse class="cls-5" cx="720.7" cy="237.72" rx="5.04" ry="5.14"/><ellipse class="cls-5" cx="809.87" cy="160.19" rx="5.04" ry="5.14"/><g class="cls-7"><ellipse class="cls-5" cx="476.46" cy="187.09" rx="5.04" ry="5.14"/></g><ellipse class="cls-5" cx="567.96" cy="243.26" rx="5.04" ry="5.14"/><ellipse class="cls-5" cx="264.01" cy="34.41" rx="5.04" ry="5.14"/><ellipse class="cls-5" cx="140.73" cy="34.41" rx="5.04" ry="5.14"/><ellipse class="cls-5" cx="297.35" cy="191.84" rx="5.04" ry="5.14"/><g class="cls-8"><ellipse class="cls-5" cx="145.49" cy="165.01" rx="5.04" ry="5.14"/></g><ellipse class="cls-3" cx="815.3" cy="283.6" rx="5.04" ry="5.14"/><ellipse class="cls-5" cx="516.01" cy="42.32" rx="2.71" ry="2.77"/><ellipse class="cls-5" cx="623.01" cy="123.8" rx="2.23" ry="2.28"/></g></g></svg>