<svg xmlns="http://www.w3.org/2000/svg" viewBox="0 0 866 466"><defs><style>.cls-1{fill:#7084a0;}.cls-2{fill:#989b9e;}.cls-3{fill:#293f56;}.cls-4{fill:#182a3a;}</style></defs><title>Fichier 41</title><g id="Calque_2" data-name="Calque 2"><g id="Calque_1-2" data-name="Calque 1"><rect class="cls-1" x="1.88" width="863.97" height="466" rx="12" ry="12"/><path class="cls-2" d="M186.89,236.1s21.56-61,78.6-38.4c0,0,36.55-42,70.69-18.57,0,0,59.23-12.67,71.42,30.44,0,0,34.8-2.2,53.37,34.6s-96.27,90.67-96.27,90.67l-69.48,39.88Z"/><path class="cls-2" d="M318,233.36s34.59-35.5,69.19-15.31c0,0,50.37-45.29,100.74-15.3,0,0,54-36.11,116.52,12.24S563.78,316.6,563.78,316.6l-92.51,71.07-143-80.86Z"/><path class="cls-2" d="M806.56,245.77s-23.27-71.86-84.82-45.19c0,0-39.45-49.45-76.28-21.86,0,0-63.92-14.91-77.09,35.83,0,0-37.55-2.59-57.59,40.72S614.67,362,614.67,362l75,46.94Z"/><path class="cls-3" d="M334.85,293.07s17.71-46.23,64.56-29.08c0,0,30-31.81,58.06-14.06,0,0,48.65-9.6,58.67,23.05A49.38,49.38,0,0,1,560,299.18c15.25,27.87-79.07,68.67-79.07,68.67l-57.08,30.21Z"/><path class="cls-2" d="M866,141.74a54.22,54.22,0,0,0-7,2.61s-41.87-10.41-57.65,30c0,0-51-8-46.12,38.56,0,0-23.06,0-26.7,13.47,0,0-32.17-44.69-73.43-7.35s-46.73,104.06-46.73,104.06L866,276.34Z"/><path class="cls-3" d="M460,409.77s8.58-77.84,68.6-77.84c0,0-12-51.88,42.87-64,0,0,13.71-50.16,65.16-29.4,0,0,30.87,3.46,44.58,38,0,0,29.16,0,42.87,22.48s-13.71,65.73-13.71,65.73L533.69,427.06Z"/><path class="cls-3" d="M866,277.4c-10.16-22.39-45-15.13-45-15.13-15.88-53.39-66.17-22.69-66.17-22.69-23.83-13.35-43.68,0-43.68,0l-13.23,26.7,95.29,109.46,72.79.15Z"/><path class="cls-3" d="M708.53,238.35c-24.18-3.47-36.92,30-36.92,30C618.47,253,616.93,312.3,616.93,312.3a43.86,43.86,0,0,0-23.58,37.07L608.48,375l142.8-21.78,39.43-61.72Z"/><path class="cls-4" d="M866,357.55c-5.28-3.92-13.23-6.21-23.14,1.93,0,0,4.83-63.34-55.9-48.72,0,0-2.76-46.63-60.72-40.37,0,0-28.3,5.57-29.68,45.94,0,0-20.7-12.53-41.4,3.48,0,0-36.58-13.92-61.42,7.65,0,0-15,7.62-14.75,23,0,0-40.45-13.2-44.59,34.13,0,0-22.09-12.53-33.82,9.74,0,0-20-43.15-55.89-7.65,0,0-51.07-39.68-82.12,15.31,0,0-43.48,9.74-24.15,43.85C353,471.53,697.75,463.57,866,458.11Z"/><path class="cls-2" d="M1.11,267.87,268.6,317.14s-5.38-66.72-46-104-72.32,7.34-72.32,7.34C146.67,207,124,207,124,207c4.78-46.51-45.42-38.56-45.42-38.56-15.54-40.4-56.78-30-56.78-30a45.81,45.81,0,0,0-20.65-4.53Z"/><path class="cls-3" d="M446.91,391.4S436,313.57,359.79,313.57c0,0,15.25-51.89-54.45-64,0,0-17.43-50.16-82.77-29.41,0,0-48.58,3.09-66,37.68,0,0-27.65.37-45.07,22.86s17.42,65.72,17.42,65.72L353.25,408.7Z"/><path class="cls-3" d="M180.44,231.62s-21.13-13.35-46.48,0c0,0-53.53-30.7-70.43,22.7,0,0-40.85-8-49.3,18.69,0,0,4.43-28.49-13.46-46.23V368l92.34-.17L194.53,258.32Z"/><path class="cls-4" d="M554.9,403.16c-33-55-87.39-15.31-87.39-15.31-38.19-35.5-59.49,7.66-59.49,7.66-12.48-22.28-36-9.75-36-9.75-4.4-47.33-47.46-34.12-47.46-34.12.28-15.34-15.7-22.95-15.7-22.95-26.44-21.58-65.36-7.66-65.36-7.66-22-16-44.06-3.48-44.06-3.48-1.47-40.37-31.58-45.94-31.58-45.94-61.7-6.26-64.63,40.37-64.63,40.37C38.61,297.37,43.75,360.7,43.75,360.7,23.92,345.39,11.43,367,11.43,367A16.48,16.48,0,0,0,0,360.73v98c170.48,5.42,564.51,15,580.61-11.73C601.17,412.91,554.9,403.16,554.9,403.16Z"/></g></g></svg>