<svg xmlns="http://www.w3.org/2000/svg" xmlns:xlink="http://www.w3.org/1999/xlink" viewBox="0 0 861.38 537.35"><defs><style>.cls-1{fill:url(#Dégradé_sans_nom_16);}.cls-2{fill:none;stroke:#e8e9ea;stroke-miterlimit:10;}</style><linearGradient id="Dégradé_sans_nom_16" x1="430.82" x2="430.82" y2="467.63" gradientUnits="userSpaceOnUse"><stop offset="0" stop-color="#265282"/><stop offset="0.19" stop-color="#295686"/><stop offset="0.39" stop-color="#326390"/><stop offset="0.6" stop-color="#4177a2"/><stop offset="0.8" stop-color="#5694ba"/><stop offset="1" stop-color="#6fb8d8"/></linearGradient></defs><title>Fichier 5</title><g id="Calque_2" data-name="Calque 2"><g id="Calque_1-2" data-name="Calque 1"><rect class="cls-1" x="0.26" width="861.11" height="467.63" rx="12" ry="12"/><line class="cls-2" x1="149.15" y1="198.74" x2="235.88" y2="110.67"/><line class="cls-2" x1="480.71" y1="202.64" x2="567.43" y2="114.57"/><line class="cls-2" x1="580.48" y1="100.54" x2="593.14" y2="87.68"/><line class="cls-2" x1="600.43" y1="80.28" x2="613.1" y2="67.42"/><line class="cls-2" x1="221.3" y1="353.06" x2="308.02" y2="264.99"/><line class="cls-2" x1="321.07" y1="250.96" x2="333.73" y2="238.1"/><line class="cls-2" x1="341.02" y1="230.7" x2="353.69" y2="217.84"/><line class="cls-2" x1="652.62" y1="324.23" x2="739.35" y2="236.16"/><line class="cls-2" x1="752.39" y1="222.13" x2="765.06" y2="209.27"/><line class="cls-2" x1="772.35" y1="201.86" x2="785.01" y2="189"/><line class="cls-2" x1="393.21" y1="376.45" x2="479.94" y2="288.37"/><line class="cls-2" x1="492.99" y1="274.35" x2="505.65" y2="261.49"/><line class="cls-2" x1="512.94" y1="254.08" x2="525.6" y2="241.22"/><line class="cls-2" x1="671.81" y1="166.79" x2="758.53" y2="78.72"/><line class="cls-2" x1="771.58" y1="64.69" x2="784.24" y2="51.83"/><line class="cls-2" x1="791.53" y1="44.43" x2="804.2" y2="31.57"/><line class="cls-2" x1="704.81" y1="444.25" x2="791.53" y2="356.18"/><line class="cls-2" x1="804.58" y1="342.15" x2="817.25" y2="329.29"/><line class="cls-2" x1="824.54" y1="321.89" x2="837.2" y2="309.03"/><line class="cls-2" x1="248.93" y1="96.64" x2="261.59" y2="83.78"/><line class="cls-2" x1="268.88" y1="76.38" x2="281.54" y2="63.52"/><line class="cls-2" x1="370.96" y1="105.22" x2="457.68" y2="17.15"/><path class="cls-2" d="M.36,373.23l57.46-58.36"/><line class="cls-2" x1="70.87" y1="300.84" x2="83.54" y2="287.98"/><line class="cls-2" x1="90.83" y1="280.58" x2="103.49" y2="267.72"/><path class="cls-2" d="M71,392.72l57.47-58.36"/><line class="cls-2" x1="141.48" y1="320.33" x2="154.14" y2="307.47"/><line class="cls-2" x1="161.43" y1="300.07" x2="174.1" y2="287.21"/><line class="cls-2" x1="146.85" y1="537" x2="233.58" y2="448.93"/><line class="cls-2" x1="246.62" y1="434.9" x2="259.29" y2="422.04"/><line class="cls-2" x1="266.58" y1="414.64" x2="279.24" y2="401.78"/><line class="cls-2" x1="442.33" y1="495.69" x2="529.06" y2="407.62"/><line class="cls-2" x1="542.1" y1="393.59" x2="554.77" y2="380.73"/><line class="cls-2" x1="562.06" y1="373.33" x2="574.72" y2="360.47"/><path class="cls-2" d="M1.71,127.13l76.84-78"/><line class="cls-2" x1="91.59" y1="35.07" x2="104.26" y2="22.21"/><line class="cls-2" x1="111.55" y1="14.81" x2="124.21" y2="1.95"/></g></g></svg>