<svg xmlns="http://www.w3.org/2000/svg" xmlns:xlink="http://www.w3.org/1999/xlink" viewBox="0 0 874.66 514"><defs><style>.cls-1{fill:url(#Dégradé_sans_nom_61);}.cls-2{fill:#1c2f6b;}.cls-3{fill:#30468c;}.cls-4{fill:url(#Dégradé_sans_nom_19);}.cls-5{fill:url(#Dégradé_sans_nom_19-2);}.cls-6{fill:none;stroke:#e8e9ea;stroke-miterlimit:10;}</style><linearGradient id="Dégradé_sans_nom_61" x1="438.21" x2="438.21" y2="482.73" gradientUnits="userSpaceOnUse"><stop offset="0" stop-color="#24205c"/><stop offset="0.13" stop-color="#262562"/><stop offset="0.3" stop-color="#2b3473"/><stop offset="0.44" stop-color="#314486"/><stop offset="0.47" stop-color="#32478a"/><stop offset="0.7" stop-color="#3659a0"/><stop offset="0.84" stop-color="#375fa8"/><stop offset="0.91" stop-color="#3e6aac"/><stop offset="1" stop-color="#4b7fb3"/></linearGradient><linearGradient id="Dégradé_sans_nom_19" x1="605.73" y1="480.36" x2="605.73" y2="279.5" gradientUnits="userSpaceOnUse"><stop offset="0"/><stop offset="0.13" stop-color="#150832"/><stop offset="0.18" stop-color="#140a37"/><stop offset="0.51" stop-color="#0b1456"/><stop offset="0.8" stop-color="#051b69"/><stop offset="1" stop-color="#031d70"/></linearGradient><linearGradient id="Dégradé_sans_nom_19-2" x1="295.87" y1="481.63" x2="295.87" y2="280.77" xlink:href="#Dégradé_sans_nom_19"/></defs><title>Fichier 21</title><g id="Calque_2" data-name="Calque 2"><g id="Calque_1-2" data-name="Calque 1"><text></text><rect class="cls-1" x="1.9" width="872.61" height="482.73" rx="12" ry="12"/><path class="cls-2" d="M164.4,250.91s25.88-75.78,94.32-47.66c0,0,43.86-52.15,84.82-23.05,0,0,71.07-15.73,85.71,37.78,0,0,41.75-2.73,64,43S377.77,373.49,377.77,373.49L294.39,423Z"/><path class="cls-2" d="M321.17,241.74s34.94-36.78,69.88-15.85c0,0,50.87-46.93,101.75-15.86,0,0,54.55-37.41,117.68,12.69S569.41,328,569.41,328L476,401.6,331.59,317.83Z"/><path class="cls-2" d="M814.63,254.6s-23.5-74.44-85.67-46.82c0,0-39.85-51.22-77.05-22.64,0,0-64.56-15.45-77.85,37.11,0,0-37.93-2.68-58.17,42.19S620.82,375,620.82,375l75.73,48.63Z"/><path class="cls-3" d="M340.21,299.45s17.89-47.89,65.21-30.12c0,0,30.33-33,58.64-14.57,0,0,49.14-9.94,59.26,23.88,0,0,28.87-1.72,44.27,27.15s-79.86,71.13-79.86,71.13l-57.65,31.29Z"/><path class="cls-2" d="M874.66,146.83a54,54,0,0,0-7.06,2.7s-42.29-10.78-58.23,31.07c0,0-51.48-8.24-46.58,40,0,0-23.29,0-27,13.95,0,0-32.48-46.29-74.16-7.61s-47.2,107.79-47.2,107.79l260.2-48.42Z"/><path class="cls-3" d="M464.55,424.48s8.66-80.63,69.28-80.63c0,0-12.12-53.75,43.3-66.29,0,0,13.86-52,65.81-30.46,0,0,31.18,3.59,45,39.42,0,0,29.45,0,43.3,23.29s-13.85,68.09-13.85,68.09L539,442.4Z"/><path class="cls-3" d="M874.66,287.36c-10.27-23.2-45.45-15.67-45.45-15.67-16-55.31-66.84-23.51-66.84-23.51-24.06-13.82-44.11,0-44.11,0l-13.37,27.66,96.25,113.4,73.52.15Z"/><path class="cls-3" d="M715.61,246.91c-24.42-3.59-37.29,31.1-37.29,31.1-53.66-15.9-55.22,45.5-55.22,45.5a45.75,45.75,0,0,0-23.82,38.41l15.28,26.58,144.23-22.57L798.62,302Z"/><path class="cls-4" d="M874.66,370.39c-5.33-4.06-13.37-6.43-23.37,2,0,0,4.87-65.61-56.46-50.47,0,0-2.79-48.31-61.33-41.82,0,0-28.58,5.77-30,47.59,0,0-20.91-13-41.82,3.6,0,0-36.94-14.42-62,7.93,0,0-15.16,7.89-14.9,23.78,0,0-40.86-13.68-45,35.35,0,0-22.3-13-34.15,10.09,0,0-20.21-44.7-56.46-7.93,0,0-51.57-41.1-82.94,15.86,0,0-43.91,10.1-24.39,45.43,14.73,26.66,362.93,18.41,532.86,12.77Z"/><path class="cls-2" d="M1.12,277.49l270.17,51s-5.44-69.11-46.48-107.79-73.05,7.61-73.05,7.61c-3.62-13.95-26.56-13.95-26.56-13.95,4.83-48.19-45.88-40-45.88-40C63.63,132.6,22,143.38,22,143.38a45.35,45.35,0,0,0-20.85-4.7Z"/><path class="cls-3" d="M451.38,405.46s-9.22-80.63-73.73-80.63c0,0,12.9-53.75-46.08-66.29,0,0-14.75-52-70-30.46,0,0-41.12,3.2-55.86,39,0,0-23.4.39-38.15,23.68s14.75,68.08,14.75,68.08l189.85,64.5Z"/><path class="cls-3" d="M182.25,239.94s-21.34-13.83-46.95,0c0,0-54.06-31.8-71.13,23.51,0,0-41.26-8.3-49.8,19.36,0,0,4.48-29.51-13.59-47.89V381.17L94,381,196.47,267.6Z"/><path class="cls-5" d="M560.45,417.64c-33.38-57-88.27-15.86-88.27-15.86-38.57-36.77-60.08,7.93-60.08,7.93-12.61-23.07-36.35-10.1-36.35-10.1-4.45-49-47.93-35.35-47.93-35.35.28-15.88-15.86-23.77-15.86-23.77-26.7-22.35-66-7.93-66-7.93C223.69,316,201.44,329,201.44,329c-1.48-41.81-31.9-47.58-31.9-47.58-62.3-6.49-65.27,41.82-65.27,41.82C39,308.05,44.19,373.66,44.19,373.66c-20-15.86-32.64,6.49-32.64,6.49A16.6,16.6,0,0,0,0,373.68V475.22c172.19,5.6,570.16,15.5,586.41-12.16C607.18,427.73,560.45,417.64,560.45,417.64Z"/><line class="cls-6" x1="152.78" y1="208.38" x2="240.66" y2="117.47"/><line class="cls-6" x1="513.65" y1="156.89" x2="601.53" y2="65.97"/><line class="cls-6" x1="614.75" y1="51.49" x2="627.58" y2="38.22"/><line class="cls-6" x1="634.97" y1="30.57" x2="647.81" y2="17.3"/><line class="cls-6" x1="438.21" y1="128.73" x2="451.04" y2="115.45"/><line class="cls-6" x1="458.43" y1="107.81" x2="471.26" y2="94.54"/><line class="cls-6" x1="704.58" y1="152.46" x2="770.3" y2="84.48"/><line class="cls-6" x1="783.52" y1="70" x2="796.35" y2="56.72"/><line class="cls-6" x1="803.74" y1="49.08" x2="816.57" y2="35.8"/><line class="cls-6" x1="253.89" y1="102.98" x2="266.72" y2="89.71"/><line class="cls-6" x1="274.11" y1="82.06" x2="286.94" y2="68.79"/><line class="cls-6" x1="377.54" y1="111.83" x2="465.43" y2="20.92"/><line class="cls-6" x1="190.11" y1="41.84" x2="202.94" y2="28.56"/><line class="cls-6" x1="210.33" y1="20.92" x2="223.17" y2="7.64"/><path class="cls-6" d="M3.36,134.46,81.23,53.91"/><line class="cls-6" x1="94.45" y1="39.42" x2="107.28" y2="26.15"/><line class="cls-6" x1="114.67" y1="18.5" x2="127.5" y2="5.23"/></g></g></svg>