<svg xmlns="http://www.w3.org/2000/svg" xmlns:xlink="http://www.w3.org/1999/xlink" viewBox="0 0 859 477"><defs><style>.cls-1{fill:url(#Dégradé_sans_nom_3);}.cls-2{fill:#fff;}.cls-3{opacity:0.58;}.cls-4,.cls-7{opacity:0.8;}.cls-5{opacity:0.6;}.cls-6{opacity:0.5;}.cls-7{isolation:isolate;fill:url(#Dégradé_sans_nom_2);}</style><linearGradient id="Dégradé_sans_nom_3" x1="429.5" y1="608" x2="429.5" y2="131" gradientTransform="matrix(1, 0, 0, -1, 0, 608)" gradientUnits="userSpaceOnUse"><stop offset="0" stop-color="#f0f1f3"/><stop offset="0.36" stop-color="#e5ecf4"/><stop offset="1" stop-color="#dee7f6"/></linearGradient><linearGradient id="Dégradé_sans_nom_2" x1="540.47" y1="481.57" x2="1185.99" y2="481.57" gradientTransform="matrix(1, 0, 0, -1, 0, 608)" gradientUnits="userSpaceOnUse"><stop offset="0" stop-color="#f0f1f3"/><stop offset="0.4" stop-color="#eef0f3"/><stop offset="0.54" stop-color="#e7edf4"/><stop offset="0.57" stop-color="#e5ecf4"/><stop offset="1" stop-color="#dee7f6"/></linearGradient></defs><title>Fichier 6</title><g id="Calque_2" data-name="Calque 2"><g id="Calque_1-2" data-name="Calque 1"><g id="Calque_2-2" data-name="Calque 2"><g id="Calque_1-2-2" data-name="Calque 1-2"><path class="cls-1" d="M10.87,0H848.13A11.09,11.09,0,0,1,859,11.29V465.71A11.09,11.09,0,0,1,848.13,477H10.87A11.09,11.09,0,0,1,0,465.71V11.29A11.09,11.09,0,0,1,10.87,0Z"/><ellipse class="cls-2" cx="783.97" cy="414.19" rx="5.36" ry="5.56"/><ellipse class="cls-2" cx="326.15" cy="419.76" rx="5.36" ry="5.56"/><ellipse class="cls-2" cx="576.49" cy="312.51" rx="5.32" ry="5.52"/><ellipse class="cls-2" cx="97.23" cy="425.32" rx="5.36" ry="5.56"/><g class="cls-3"><ellipse class="cls-2" cx="788.52" cy="273.85" rx="10.64" ry="11.05"/></g><g class="cls-4"><ellipse class="cls-2" cx="527.09" cy="420.63" rx="9.12" ry="9.47"/></g><ellipse class="cls-2" cx="91.11" cy="303.69" rx="6.13" ry="6.36"/><ellipse class="cls-2" cx="396.58" cy="75.53" rx="10.72" ry="11.13"/><g class="cls-5"><ellipse class="cls-2" cx="458.6" cy="224.19" rx="10.72" ry="11.13"/></g><g class="cls-5"><ellipse class="cls-2" cx="304.71" cy="303.69" rx="10.72" ry="11.13"/></g><g class="cls-5"><ellipse class="cls-2" cx="201.35" cy="385.58" rx="10.72" ry="11.13"/></g><g class="cls-5"><ellipse class="cls-2" cx="258.77" cy="42.13" rx="10.72" ry="11.13"/></g><ellipse class="cls-2" cx="649.45" cy="256.48" rx="6.08" ry="6.31"/><path class="cls-2" d="M505.94.3c-21,86.88,29.84,175,113.51,196.75s168.49-31,189.47-117.87a168.27,168.27,0,0,0,0-78.88Z"/><ellipse class="cls-2" cx="668.36" cy="430.1" rx="6.13" ry="6.36"/><ellipse class="cls-2" cx="406.53" cy="332.31" rx="6.13" ry="6.36"/><g class="cls-6"><ellipse class="cls-2" cx="352.17" cy="210.67" rx="6.13" ry="6.36"/></g><path class="cls-7" d="M857.68,46.72a55.84,55.84,0,0,0-6.84,4.82s-17.91,8.68-17.6,26.05c0,0-48.24-15-53.18,38.73,0,0-26.33-14.22-40.31,11.05,0,0-23.87-49-66.66-8.69,0,0-60.89-45-97.92,17.38,0,0-51.84,11.05-28.8,49.75,10.09,16.94,152.65,21,309.77,20.25C856.78,153,857.6,99.83,857.68,46.72Z"/></g></g></g></g></svg>