<svg xmlns="http://www.w3.org/2000/svg" xmlns:xlink="http://www.w3.org/1999/xlink" viewBox="0 0 867 469.29"><defs><style>.cls-1{fill:url(#Dégradé_sans_nom_23);}.cls-2{fill:#d6d192;}.cls-3{fill:#fffed7;}</style><linearGradient id="Dégradé_sans_nom_23" x1="433.5" y1="605.89" x2="433.5" y2="137.29" gradientTransform="matrix(1, 0, 0, -1, 0, 606.57)" gradientUnits="userSpaceOnUse"><stop offset="0" stop-color="#46455f"/><stop offset="0.22" stop-color="#474861"/><stop offset="0.37" stop-color="#4b5168"/><stop offset="0.5" stop-color="#526073"/><stop offset="0.52" stop-color="#546476"/><stop offset="0.85" stop-color="#668693"/><stop offset="0.88" stop-color="#6a8a9a"/><stop offset="1" stop-color="#7898b2"/></linearGradient></defs><title>Fichier 28</title><g id="Calque_2" data-name="Calque 2"><g id="Calque_1-2" data-name="Calque 1"><g id="Calque_2-2" data-name="Calque 2"><g id="Calque_1-2-2" data-name="Calque 1-2"><path class="cls-1" d="M12.11.68H854.89A12,12,0,0,1,867,12.48v445a12,12,0,0,1-12.11,11.8H12.11A12,12,0,0,1,0,457.49v-445A12,12,0,0,1,12.11.68Z"/><polygon class="cls-2" points="774.45 0.09 735.8 0.09 543.23 195.65 693.81 195.65 605.87 358.8 819.09 149.38 721.52 149.38 774.45 0.09"/><polygon class="cls-3" points="683.05 0 645.09 0 542.13 104.55 638.73 104.55 582.32 209.21 719.09 74.87 656.5 74.87 683.05 0"/></g></g></g></g></svg>